<?xml version="1.0" standalone="no"?>
<!DOCTYPE svg PUBLIC "-//W3C//DTD SVG 20010904//EN"
 "http://www.w3.org/TR/2001/REC-SVG-20010904/DTD/svg10.dtd">
<svg version="1.0" xmlns="http://www.w3.org/2000/svg"
 width="421.000000pt" height="312.000000pt" viewBox="0 0 421.000000 312.000000"
 preserveAspectRatio="xMidYMid meet">

<g transform="translate(0.000000,312.000000) scale(0.100000,-0.100000)"
fill="#000000" stroke="none">
<path d="M2128 2590 c-1 -3 -2 -180 -3 -393 l0 -388 -88 -35 c-49 -19 -91 -34
-93 -34 -2 0 -4 122 -4 270 l0 270 55 0 55 0 0 -219 c0 -139 4 -222 10 -226 7
-4 9 72 8 232 l-3 238 -29 3 c-17 2 -49 1 -73 -3 l-43 -6 -2 -286 -3 -285 -80
-29 c-44 -16 -83 -29 -87 -29 -5 0 -8 175 -8 388 l0 389 55 2 55 2 0 -128 c0
-165 12 -557 16 -562 2 -2 5 147 6 332 1 185 2 345 2 354 1 15 -9 18 -74 18
l-75 0 -2 -399 c-1 -219 -5 -402 -10 -405 -12 -10 -162 -55 -167 -50 -6 6 -9
134 -7 322 l1 167 55 0 55 0 0 -210 c0 -133 4 -210 10 -210 6 0 10 80 10 220
l0 221 -72 -3 -73 -3 -5 -253 -5 -254 -27 22 c-43 34 -116 133 -149 204 -39
83 -62 209 -55 301 l5 70 -15 -50 c-35 -115 -17 -318 38 -427 10 -21 18 -43
18 -50 0 -7 -26 -26 -58 -43 -66 -34 -122 -81 -122 -101 0 -7 19 -19 41 -26
148 -44 824 154 1303 381 70 34 132 61 137 61 5 0 9 -9 9 -20 0 -11 3 -20 8
-20 8 1 122 143 117 148 -2 2 -24 5 -49 8 -38 4 -46 2 -46 -11 0 -15 -2 -15
-22 -1 -31 22 -51 21 -43 -3 4 -14 -1 -25 -20 -37 -34 -22 -40 -13 -48 69 -3
34 -13 80 -21 102 -13 33 -15 35 -11 10 5 -36 7 -91 6 -162 l-1 -52 -57 -27
c-167 -78 -299 -132 -306 -125 -5 5 -7 172 -5 372 l3 364 55 0 55 0 3 -322 c1
-178 6 -323 11 -323 9 0 21 525 13 614 l-4 55 -74 3 c-41 2 -75 1 -76 -2z
m-743 -986 c9 -14 14 -28 12 -31 -3 -2 -33 -7 -66 -10 -51 -5 -61 -3 -61 10 0
17 56 57 81 57 9 0 24 -12 34 -26z"/>
<path d="M2497 1855 c-17 -7 -42 -34 -63 -69 -48 -81 -100 -140 -162 -187
-165 -125 -384 -161 -575 -94 -74 25 -83 26 -143 15 -35 -7 -64 -15 -64 -19 0
-12 86 -70 142 -96 115 -52 291 -69 416 -40 106 25 208 82 292 161 83 80 130
151 167 251 29 82 28 94 -10 78z"/>
</g>
</svg>
